<svg width="1034" height="1712" xmlns="http://www.w3.org/2000/svg" xmlns:xlink="http://www.w3.org/1999/xlink" xml:space="preserve" overflow="hidden"><defs><clipPath id="clip0"><rect x="1620" y="90" width="1034" height="1712"/></clipPath></defs><g clip-path="url(#clip0)" transform="translate(-1620 -90)"><path d="M1963.5 168C1963.5 125.75 1997.75 91.4999 2040 91.4999L2230 91.4999C2272.25 91.4999 2306.5 125.75 2306.5 168L2306.5 168C2306.5 210.25 2272.25 244.5 2230 244.5L2040 244.5C1997.75 244.5 1963.5 210.25 1963.5 168Z" stroke="#000000" stroke-width="3.4375" stroke-miterlimit="8" fill="none" fill-rule="evenodd"/><text font-family="Calibri,Calibri_MSFontService,sans-serif" font-weight="400" font-size="64" transform="matrix(1 0 0 1 2071.74 189)">Start</text><path d="M2135.15 244 2135.15 447.683 2132.85 447.683 2132.85 244ZM2147.75 443.1 2134 470.6 2120.25 443.1Z" fill="#4472C4"/><rect x="1963.5" y="471.5" width="343" height="153" stroke="#000000" stroke-width="3.4375" stroke-miterlimit="8" fill="none"/><text font-family="Calibri,Calibri_MSFontService,sans-serif" font-weight="400" font-size="64" transform="matrix(1 0 0 1 2055.88 569)">Home</text><rect x="1621.5" y="850.5" width="342" height="153" stroke="#000000" stroke-width="3.4375" stroke-miterlimit="8" fill="none"/><text font-family="Calibri,Calibri_MSFontService,sans-serif" font-weight="400" font-size="64" transform="matrix(1 0 0 1 1722 948)">Login</text><rect x="2310.5" y="850.5" width="342" height="153" stroke="#000000" stroke-width="3.4375" stroke-miterlimit="8" fill="none"/><text font-family="Calibri,Calibri_MSFontService,sans-serif" font-weight="400" font-size="64" transform="matrix(1 0 0 1 2393.29 948)">Signup</text><path d="M0.632285-0.955589 323.987 212.999 322.723 214.91-0.632285 0.955589ZM327.12 199.958 342.467 226.6 311.945 222.892Z" fill="#4472C4" transform="matrix(-1 0 0 1 2134.47 624)"/><path d="M2134.63 623.041 2462.31 837.107 2461.05 839.026 2133.37 624.959ZM2465.36 824.048 2480.87 850.6 2450.32 847.071Z" fill="#4472C4"/><rect x="1963.5" y="1230.5" width="343" height="153" stroke="#000000" stroke-width="3.4375" stroke-miterlimit="8" fill="none"/><text font-family="Calibri,Calibri_MSFontService,sans-serif" font-weight="400" font-size="64" transform="matrix(1 0 0 1 2002.6 1328)">Price Map</text><path d="M1792.63 1002.04 2115.99 1216 2114.72 1217.91 1791.37 1003.96ZM2119.12 1202.96 2134.47 1229.6 2103.95 1225.89Z" fill="#4472C4"/><path d="M0.626673-0.959278 328.308 213.107 327.055 215.026-0.626673 0.959278ZM331.365 200.049 346.867 226.6 316.325 223.071Z" fill="#4472C4" transform="matrix(-1 0 0 1 2480.87 1003)"/><rect x="1621.5" y="1609.5" width="342" height="153" stroke="#000000" stroke-width="3.4375" stroke-miterlimit="8" fill="none"/><text font-family="Calibri,Calibri_MSFontService,sans-serif" font-weight="400" font-size="64" transform="matrix(1 0 0 1 1675.09 1669)">Pollution </text><text font-family="Calibri,Calibri_MSFontService,sans-serif" font-weight="400" font-size="64" transform="matrix(1 0 0 1 1699.16 1746)">Graphs</text><rect x="2310.5" y="1609.5" width="342" height="153" stroke="#000000" stroke-width="3.4375" stroke-miterlimit="8" fill="none"/><text font-family="Calibri,Calibri_MSFontService,sans-serif" font-weight="400" font-size="64" transform="matrix(1 0 0 1 2401.59 1669)">Usage </text><text font-family="Calibri,Calibri_MSFontService,sans-serif" font-weight="400" font-size="64" transform="matrix(1 0 0 1 2388.5 1746)">Graphs</text><path d="M19.7441 11.6902 323.987 212.999 322.723 214.91 18.4796 13.6013ZM15.3467 26.6419 0 0 30.5215 3.70776ZM327.12 199.958 342.467 226.6 311.945 222.892Z" fill="#4472C4" transform="matrix(-1 0 0 1 2134.47 1383)"/><path d="M2153.81 1394.57 2462.31 1596.11 2461.05 1598.03 2152.56 1396.49ZM2149.5 1409.55 2134 1383 2164.54 1386.53ZM2465.36 1583.05 2480.87 1609.6 2450.32 1606.07Z" fill="#4472C4"/><path d="M1985.92 1684.85 2286.95 1684.85 2286.95 1687.15 1985.92 1687.15ZM1990.5 1699.75 1963 1686 1990.5 1672.25ZM2282.37 1672.25 2309.87 1686 2282.37 1699.75Z" fill="#4472C4"/></g></svg>