<svg width="4427" height="2482" xmlns="http://www.w3.org/2000/svg" xmlns:xlink="http://www.w3.org/1999/xlink" xml:space="preserve" overflow="hidden"><defs><clipPath id="clip0"><rect x="-24" y="-2" width="4427" height="2482"/></clipPath><clipPath id="clip1"><rect x="207" y="8" width="140" height="140"/></clipPath><clipPath id="clip2"><rect x="207" y="8" width="140" height="140"/></clipPath><clipPath id="clip3"><rect x="207" y="8" width="140" height="140"/></clipPath><clipPath id="clip4"><rect x="553" y="7" width="137" height="140"/></clipPath><clipPath id="clip5"><rect x="553" y="7" width="137" height="140"/></clipPath><clipPath id="clip6"><rect x="553" y="7" width="137" height="140"/></clipPath><clipPath id="clip7"><rect x="35" y="7" width="137" height="139"/></clipPath><clipPath id="clip8"><rect x="35" y="7" width="137" height="139"/></clipPath><clipPath id="clip9"><rect x="35" y="7" width="137" height="139"/></clipPath><clipPath id="clip10"><rect x="379" y="7" width="140" height="140"/></clipPath><clipPath id="clip11"><rect x="379" y="7" width="140" height="140"/></clipPath><clipPath id="clip12"><rect x="379" y="7" width="140" height="140"/></clipPath></defs><g clip-path="url(#clip0)" transform="translate(24 2)"><rect x="0.499836" y="0.499836" width="4400" height="2475" stroke="#FFFFFF" stroke-width="4.58333" stroke-miterlimit="8" fill="#FFFFFF"/><rect x="0.499836" y="0.499836" width="4400" height="161" stroke="#787878" stroke-width="4.58333" stroke-miterlimit="8" fill="#A5A5A5"/><g clip-path="url(#clip1)"><g clip-path="url(#clip2)"><g clip-path="url(#clip3)"><path d="M310.063 78C310.063 80.3818 308.132 82.3125 305.75 82.3125L258.658 82.3125 271.423 95.0776C273.046 96.8201 272.95 99.5489 271.207 101.173 269.551 102.716 266.984 102.716 265.328 101.173L245.203 81.0475C243.521 79.3638 243.521 76.6363 245.203 74.9525L265.328 54.8275C267.07 53.2038 269.799 53.3002 271.423 55.0427 272.966 56.6988 272.966 59.2664 271.423 60.9225L258.658 73.6875 305.75 73.6875C308.132 73.6875 310.063 75.6182 310.063 78Z" fill="#FFFFFF"/><path d="M222.375 78C222.375 108.169 246.831 132.625 277 132.625 307.169 132.625 331.625 108.169 331.625 78 331.625 47.8315 307.169 23.375 277 23.375 246.831 23.375 222.375 47.8315 222.375 78ZM231 78C231 52.5949 251.595 32 277 32 302.405 32 323 52.5949 323 78 323 103.405 302.405 124 277 124 251.595 124 231 103.405 231 78Z" fill="#FFFFFF"/></g></g></g><g clip-path="url(#clip4)"><g clip-path="url(#clip5)"><g clip-path="url(#clip6)"><path d="M114.166 48.5208 114.166 18.5521 104.605 28.1135C95.0436 19.551 82.3426 14.2708 68.4999 14.2708 38.5312 14.2708 14.2708 38.5312 14.2708 68.4999 14.2708 98.4686 38.5312 122.729 68.4999 122.729 83.4843 122.729 97.0415 116.593 106.888 106.888L94.7582 94.7582C88.0509 101.465 78.7749 105.604 68.4999 105.604 48.0926 105.604 31.3958 88.9072 31.3958 68.4999 31.3958 48.0926 48.0926 31.3958 68.4999 31.3958 77.6332 31.3958 86.053 34.6781 92.4749 40.2437L84.1978 48.5208 114.166 48.5208Z" fill="#FFFFFF" transform="matrix(1 0 0 1.0073 553 7.9999)"/></g></g></g><g clip-path="url(#clip7)"><g clip-path="url(#clip8)"><g clip-path="url(#clip9)"><path d="M68.4999 17.125 68.4999 17.125 8.56249 74.2082 14.9844 79.6311 68.4999 28.827 68.4999 28.827 122.015 79.6311 128.437 74.2082Z" fill="#FFFFFF" transform="matrix(1 0 0 1 35.0001 7.9999)"/><path d="M25.6875 77.4905 25.6875 119.875 59.9374 119.875 59.9374 84.1978 77.0624 84.1978 77.0624 119.875 111.312 119.875 111.312 77.4905 68.4999 36.8187 25.6875 77.4905Z" fill="#FFFFFF" transform="matrix(1 0 0 1 35.0001 7.9999)"/></g></g></g><g clip-path="url(#clip10)"><g clip-path="url(#clip11)"><g clip-path="url(#clip12)"><path d="M102.063 69.0001C102.063 71.3819 100.132 73.3126 97.7501 73.3126L50.6576 73.3126 63.4226 86.0776C65.0462 87.8202 64.9499 90.549 63.2074 92.1726 61.5512 93.7159 58.9837 93.7159 57.3276 92.1726L37.2026 72.0476C35.521 70.3639 35.521 67.6363 37.2026 65.9526L57.3276 45.8276C59.0701 44.2039 61.7989 44.3002 63.4226 46.0428 64.9659 47.6989 64.9659 50.2664 63.4226 51.9226L50.6576 64.6876 97.7501 64.6876C100.132 64.6876 102.063 66.6183 102.063 69.0001Z" fill="#FFFFFF" transform="matrix(-1 0 0 1 518 7.9999)"/><path d="M14.375 69.0001C14.375 99.1687 38.8315 123.625 69.0001 123.625 99.1687 123.625 123.625 99.1687 123.625 69.0001 123.625 38.8315 99.1687 14.375 69.0001 14.375 38.8315 14.375 14.375 38.8315 14.375 69.0001ZM23 69.0001C23 43.595 43.595 23 69.0001 23 94.4052 23 115 43.595 115 69.0001 115 94.4052 94.4052 115 69.0001 115 43.595 115 23 94.4052 23 69.0001Z" fill="#FFFFFF" transform="matrix(-1 0 0 1 518 7.9999)"/></g></g></g><rect x="736" y="25.0001" width="3629" height="111" fill="#FFFFFF"/><text font-family="Calibri,Calibri_MSFontService,sans-serif" font-weight="400" font-size="64" transform="matrix(1 0 0 1 768.721 101)">https://www.machine</text><text font-family="Calibri,Calibri_MSFontService,sans-serif" font-weight="400" font-size="64" transform="matrix(1 0 0 1 1343.08 101)">-</text><text font-family="Calibri,Calibri_MSFontService,sans-serif" font-weight="400" font-size="64" transform="matrix(1 0 0 1 1362.56 101)">learning</text><text font-family="Calibri,Calibri_MSFontService,sans-serif" font-weight="400" font-size="64" transform="matrix(1 0 0 1 1575.69 101)">-</text><text font-family="Calibri,Calibri_MSFontService,sans-serif" font-weight="400" font-size="64" transform="matrix(1 0 0 1 1595.17 101)">app.com/prediction</text><text font-family="Calibri,Calibri_MSFontService,sans-serif" font-weight="400" font-size="64" transform="matrix(1 0 0 1 2112.85 101)">-</text><text font-family="Calibri,Calibri_MSFontService,sans-serif" font-weight="400" font-size="64" transform="matrix(1 0 0 1 2132.33 101)">request</text><text font-family="Calibri,Calibri_MSFontService,sans-serif" font-weight="700" font-size="165" transform="matrix(1 0 0 1 1397.59 456)">Predict Pollution Level</text><rect x="1365" y="599" width="1616" height="278" stroke="#000000" stroke-width="10.3125" stroke-miterlimit="8" fill="none"/><text fill="#7F7F7F" font-family="Calibri,Calibri_MSFontService,sans-serif" font-weight="400" font-size="110" transform="matrix(1 0 0 1 1397.59 775)">Enter Date (dd/mm/</text><text fill="#7F7F7F" font-family="Calibri,Calibri_MSFontService,sans-serif" font-weight="400" font-size="110" transform="matrix(1 0 0 1 2305.23 775)">yyyy</text><text fill="#7F7F7F" font-family="Calibri,Calibri_MSFontService,sans-serif" font-weight="400" font-size="110" transform="matrix(1 0 0 1 2506.19 775)">):</text><rect x="1365" y="969" width="1616" height="278" stroke="#000000" stroke-width="10.3125" stroke-miterlimit="8" fill="none"/><text fill="#7F7F7F" font-family="Calibri,Calibri_MSFontService,sans-serif" font-weight="400" font-size="110" transform="matrix(1 0 0 1 1397.59 1145)">Enter Location:</text><path d="M3048 590C3070.37 590 3088.5 593.022 3088.5 596.75L3088.5 911.75C3088.5 915.478 3106.63 918.5 3129 918.5 3106.63 918.5 3088.5 921.522 3088.5 925.25L3088.5 1240.25C3088.5 1243.98 3070.37 1247 3048 1247" stroke="#000000" stroke-width="13.75" stroke-miterlimit="8" fill="none" fill-rule="evenodd"/><text font-family="Calibri,Calibri_MSFontService,sans-serif" font-weight="400" font-size="64" transform="matrix(1 0 0 1 3197.14 908)">Item 1: Input Parameters </text><text font-family="Calibri,Calibri_MSFontService,sans-serif" font-weight="400" font-size="64" transform="matrix(1 0 0 1 3197.14 985)">for ML Algorithm</text><text font-family="Calibri,Calibri_MSFontService,sans-serif" font-weight="400" font-size="64" transform="matrix(1 0 0 1 1609.47 2108)">Item 2: Predict Button to Submit Parameters</text><rect x="1365" y="1687" width="1616" height="278" stroke="#000000" stroke-width="10.3125" stroke-miterlimit="8" fill="none"/><text fill="#7F7F7F" font-family="Calibri,Calibri_MSFontService,sans-serif" font-weight="700" font-size="110" transform="matrix(1 0 0 1 1706.84 1863)">--</text><text fill="#7F7F7F" font-family="Calibri,Calibri_MSFontService,sans-serif" font-weight="700" font-size="110" transform="matrix(1 0 0 1 1799.08 1863)">Make Prediction </text><text fill="#7F7F7F" font-family="Calibri,Calibri_MSFontService,sans-serif" font-weight="700" font-size="110" transform="matrix(1 0 0 1 2571.14 1863)">--</text><rect x="0" y="166" width="554" height="2309" stroke="#000000" stroke-width="10.3125" stroke-miterlimit="8" fill="#FFFFFF"/><text fill="#FFFFFF" font-family="Calibri,Calibri_MSFontService,sans-serif" font-weight="400" font-size="83" transform="matrix(1 0 0 1 127.509 1298)">Pollution </text><text fill="#FFFFFF" font-family="Calibri,Calibri_MSFontService,sans-serif" font-weight="400" font-size="83" transform="matrix(1 0 0 1 158.194 1397)">Graphs</text><text fill="#FFFFFF" font-family="Calibri,Calibri_MSFontService,sans-serif" font-weight="400" font-size="83" transform="matrix(1 0 0 1 395.977 1397)">​</text><path d="M49.5 265C49.5 236.557 68.0801 213.5 90.9999 213.5 113.92 213.5 132.5 236.557 132.5 265 132.5 293.443 113.92 316.5 90.9999 316.5 68.0801 316.5 49.5 293.443 49.5 265Z" stroke="#2F528F" stroke-width="4.58333" stroke-miterlimit="8" fill="#4472C4" fill-rule="evenodd"/><path d="M91.0001 466.5 40.5001 442 40.5001 344C40.5001 330.469 63.1097 319.5 91.0001 319.5 118.89 319.5 141.5 330.469 141.5 344L141.5 442Z" stroke="#2F528F" stroke-width="4.58333" stroke-miterlimit="8" fill="#4472C4" fill-rule="evenodd"/><text font-family="Calibri,Calibri_MSFontService,sans-serif" font-weight="400" font-size="64" transform="matrix(1 0 0 1 221.806 286)">Joe</text><text font-family="Calibri,Calibri_MSFontService,sans-serif" font-weight="400" font-size="64" transform="matrix(1 0 0 1 322.639 286)">Smith</text><path d="M0 0 524.962 2.46273" stroke="#000000" stroke-width="2.29167" stroke-miterlimit="8" fill="none" fill-rule="evenodd" transform="matrix(1 0 0 -1 12 751.463)"/><text font-family="Calibri,Calibri_MSFontService,sans-serif" font-weight="400" font-size="73" transform="matrix(1 0 0 1 20.6863 734)">Contents</text><text font-family="Calibri,Calibri_MSFontService,sans-serif" font-weight="400" font-size="64" transform="matrix(1 0 0 1 33 930)">Make Prediction</text></g></svg>