<svg width="1034" height="1712" xmlns="http://www.w3.org/2000/svg" xmlns:xlink="http://www.w3.org/1999/xlink" xml:space="preserve" overflow="hidden"><defs><clipPath id="clip0"><rect x="1620" y="90" width="1034" height="1712"/></clipPath></defs><g clip-path="url(#clip0)" transform="translate(-1620 -90)"><path d="M1963.5 168C1963.5 125.75 1997.75 91.4999 2040 91.4999L2230 91.4999C2272.25 91.4999 2306.5 125.75 2306.5 168L2306.5 168C2306.5 210.25 2272.25 244.5 2230 244.5L2040 244.5C1997.75 244.5 1963.5 210.25 1963.5 168Z" stroke="#000000" stroke-width="3.4375" stroke-miterlimit="8" fill="none" fill-rule="evenodd"/><text font-family="Calibri,Calibri_MSFontService,sans-serif" font-weight="400" font-size="64" transform="matrix(1 0 0 1 2071.74 189)">Start</text><path d="M2135.15 244 2135.15 447.683 2132.85 447.683 2132.85 244ZM2147.75 443.1 2134 470.6 2120.25 443.1Z" fill="#4472C4"/><rect x="1963.5" y="471.5" width="343" height="153" stroke="#000000" stroke-width="3.4375" stroke-miterlimit="8" fill="none"/><text font-family="Calibri,Calibri_MSFontService,sans-serif" font-weight="400" font-size="64" transform="matrix(1 0 0 1 2055.88 569)">Home</text><rect x="1621.5" y="850.5" width="342" height="153" stroke="#000000" stroke-width="3.4375" stroke-miterlimit="8" fill="none"/><text font-family="Calibri,Calibri_MSFontService,sans-serif" font-weight="400" font-size="64" transform="matrix(1 0 0 1 1722 948)">Login</text><rect x="2310.5" y="850.5" width="342" height="153" stroke="#000000" stroke-width="3.4375" stroke-miterlimit="8" fill="none"/><text font-family="Calibri,Calibri_MSFontService,sans-serif" font-weight="400" font-size="64" transform="matrix(1 0 0 1 2393.29 948)">Signup</text><path d="M0.632285-0.955589 323.987 212.999 322.723 214.91-0.632285 0.955589ZM327.12 199.958 342.467 226.6 311.945 222.892Z" fill="#4472C4" transform="matrix(-1 0 0 1 2134.47 624)"/><path d="M2134.63 623.041 2462.31 837.107 2461.05 839.026 2133.37 624.959ZM2465.36 824.048 2480.87 850.6 2450.32 847.071Z" fill="#4472C4"/><rect x="1963.5" y="1230.5" width="343" height="153" stroke="#000000" stroke-width="3.4375" stroke-miterlimit="8" fill="none"/><text font-family="Calibri,Calibri_MSFontService,sans-serif" font-weight="400" font-size="64" transform="matrix(1 0 0 1 2001.01 1289)">Prediction </text><text font-family="Calibri,Calibri_MSFontService,sans-serif" font-weight="400" font-size="64" transform="matrix(1 0 0 1 2028.42 1366)">Request</text><path d="M1792.63 1002.04 2115.99 1216 2114.72 1217.91 1791.37 1003.96ZM2119.12 1202.96 2134.47 1229.6 2103.95 1225.89Z" fill="#4472C4"/><path d="M0.626673-0.959278 328.308 213.107 327.055 215.026-0.626673 0.959278ZM331.365 200.049 346.867 226.6 316.325 223.071Z" fill="#4472C4" transform="matrix(-1 0 0 1 2480.87 1003)"/><rect x="1963.5" y="1609.5" width="342" height="153" stroke="#000000" stroke-width="3.4375" stroke-miterlimit="8" fill="none"/><text font-family="Calibri,Calibri_MSFontService,sans-serif" font-weight="400" font-size="64" transform="matrix(1 0 0 1 2000.65 1669)">Prediction </text><text font-family="Calibri,Calibri_MSFontService,sans-serif" font-weight="400" font-size="64" transform="matrix(1 0 0 1 2009.08 1746)">Response</text><path d="M1.18291 22.9147 1.47542 203.681-0.816247 203.685-1.10875 22.9184ZM-13.7055 27.5222 0 0 13.7945 27.4777ZM14.0722 199.078 0.366667 226.6-13.4278 199.122Z" fill="#4472C4" transform="matrix(-1 0 0 1 2134.37 1383)"/></g></svg>